<?xml version="1.0" standalone="no"?><!DOCTYPE svg PUBLIC "-//W3C//DTD SVG 1.1//EN" "http://www.w3.org/Graphics/SVG/1.1/DTD/svg11.dtd"><svg t="1617703068864" class="icon" viewBox="0 0 1024 1024" version="1.1" xmlns="http://www.w3.org/2000/svg" p-id="13501" xmlns:xlink="http://www.w3.org/1999/xlink" width="200" height="200"><defs><style type="text/css"></style></defs><path d="M160.0256 185.6256C247.6928 91.136 372.9408 32 512 32c265.0944 0 480 214.9056 480 480s-214.9056 480-480 480S32 777.0944 32 512v-0.3008h128V512c0 194.4064 157.5936 352 352 352s352-157.5936 352-352-157.5936-352-352-352c-103.712 0-196.9536 44.8576-261.376 116.224L339.2 364.8H83.2V108.8l76.8256 76.8256zM576 448h128v128H448V320h128v128z" p-id="13502"></path></svg>