<?xml version="1.0" standalone="no"?><!DOCTYPE svg PUBLIC "-//W3C//DTD SVG 1.1//EN" "http://www.w3.org/Graphics/SVG/1.1/DTD/svg11.dtd"><svg t="1617713418759" class="icon" viewBox="0 0 1024 1024" version="1.1" xmlns="http://www.w3.org/2000/svg" p-id="14249" xmlns:xlink="http://www.w3.org/1999/xlink" width="200" height="200"><defs><style type="text/css"></style></defs><path d="M800 384c17.496 0 31.713 14.042 32 31.47V736c0 87.482-70.209 158.566-157.354 159.979L672 896H352c-87.482 0-158.566-70.209-159.979-157.354L192 736V416c0-17.673 14.327-32 32-32 17.496 0 31.713 14.042 31.996 31.47l0.004 0.53v320c0 52.49 42.125 95.14 94.412 95.987L352 832h320c52.49 0 95.14-42.125 95.987-94.412L768 736V416c0-17.673 14.327-32 32-32z m-416 96c17.673 0 32 14.327 32 32v192c0 17.673-14.327 32-32 32-17.673 0-32-14.327-32-32V512c0-17.673 14.327-32 32-32z m128 0c17.673 0 32 14.327 32 32v192c0 17.673-14.327 32-32 32-17.673 0-32-14.327-32-32V512c0-17.673 14.327-32 32-32z m128 0c17.673 0 32 14.327 32 32v192c0 17.673-14.327 32-32 32-17.673 0-32-14.327-32-32V512c0-17.673 14.327-32 32-32z m-64-352c87.482 0 158.566 38.209 159.979 125.354L736 256h144c26.51 0 48 21.49 48 48s-21.49 48-48 48H144c-26.51 0-48-21.49-48-48s21.49-48 48-48h144c0-87.482 70.209-126.566 157.354-127.979L448 128h128z m0 64H448c-52.49 0-95.14 10.125-95.987 62.412L352 256h320c0-52.49-42.125-63.14-94.412-63.987L576 192z" p-id="14250" fill="#b7081f"></path></svg>