<?xml version="1.0" standalone="no"?><!DOCTYPE svg PUBLIC "-//W3C//DTD SVG 1.1//EN" "http://www.w3.org/Graphics/SVG/1.1/DTD/svg11.dtd"><svg t="1617713538939" class="icon" viewBox="0 0 1024 1024" version="1.1" xmlns="http://www.w3.org/2000/svg" p-id="15291" xmlns:xlink="http://www.w3.org/1999/xlink" width="200" height="200"><defs><style type="text/css"></style></defs><path d="M854.8 169.2c-12.4-12.4-32.8-12.4-45.2 0l-320 320c-12.4 12.4-12.4 32.8 0 45.2s32.8 12.4 45.2 0l320-320c12.4-12.4 12.4-32.4 0-45.2z" fill="" p-id="15292"></path><path d="M960 480c-17.6 0-32 14.4-32 32 0 229.6-186.4 416-416 416H246.8c-21.6-72.4-78.4-129.2-150.8-150.8V512C96 282.4 282.4 96 512 96c17.6 0 32-14.4 32-32s-14.4-32-32-32C246.8 32 32 246.8 32 512v480h480c265.2 0 480-214.8 480-480 0-17.6-14.4-32-32-32zM96 845.6c36.8 16 66.4 45.6 82.4 82.4H96v-82.4z" fill="" p-id="15293"></path></svg>