<?xml version="1.0" standalone="no"?><!DOCTYPE svg PUBLIC "-//W3C//DTD SVG 1.1//EN" "http://www.w3.org/Graphics/SVG/1.1/DTD/svg11.dtd"><svg t="1617702960540" class="icon" viewBox="0 0 1024 1024" version="1.1" xmlns="http://www.w3.org/2000/svg" p-id="12006" xmlns:xlink="http://www.w3.org/1999/xlink" width="200" height="200"><defs><style type="text/css"></style></defs><path d="M512 0a512 512 0 1 0 512 512A512 512 0 0 0 512 0z m341.333333 674.133333a372.48 372.48 0 1 1-343.466666-517.546666l-55.466667-55.466667a29.866667 29.866667 0 0 1 42.666667-42.666667L609.706667 170.666667a29.866667 29.866667 0 0 1 0 42.666666l-113.066667 113.493334a29.866667 29.866667 0 0 1-42.666667-42.666667l67.84-67.84H512a312.32 312.32 0 1 0 312.32 312.746667 305.92 305.92 0 0 0-3.84-49.92 29.866667 29.866667 0 1 1 58.88-9.813334 374.186667 374.186667 0 0 1-26.026667 204.8z" fill="#5E5C5C" p-id="12007"></path></svg>